HIERARCHY
ROOT Hips
{
	OFFSET 0.000000 0.000000 0.000000
	CHANNELS 6 Xposition Yposition Zposition Zrotation Yrotation Xrotation 
	JOINT LeftUpLeg_virtual
	{
		OFFSET 0.000000 0.000000 0.000000
		CHANNELS 3 Zrotation Yrotation Xrotation
		JOINT LeftUpLeg
		{
			OFFSET 10.205400 -3.823500 0.155100
			CHANNELS 3 Zrotation Yrotation Xrotation
			JOINT LeftLeg
			{
				OFFSET 0.708757 -12.982077 0.567790
				CHANNELS 3 Zrotation Yrotation Xrotation
				JOINT LeftFoot
				{
					OFFSET -0.708756 -10.717838 -2.184338
					CHANNELS 3 Zrotation Yrotation Xrotation
					JOINT LeftToeBase
					{
						OFFSET 0.108149 -7.191104 7.560241
						CHANNELS 3 Zrotation Yrotation Xrotation
						End Site
						{
							OFFSET 0.000000 0.000000 0.000000
						}
					}
				}
			}
		}
	}
	JOINT RightUpLeg_virtual
	{
		OFFSET 0.000000 0.000000 0.000000
		CHANNELS 3 Zrotation Yrotation Xrotation
		JOINT RightUpLeg
		{
			OFFSET -10.205400 -3.823500 0.005500
			CHANNELS 3 Zrotation Yrotation Xrotation
			JOINT RightLeg
			{
				OFFSET -0.708756 -12.982134 0.610632
				CHANNELS 3 Zrotation Yrotation Xrotation
				JOINT RightFoot
				{
					OFFSET 0.708754 -10.717769 -1.945823
					CHANNELS 3 Zrotation Yrotation Xrotation
					JOINT RightToeBase
					{
						OFFSET -0.108140 -7.191069 7.372968
						CHANNELS 3 Zrotation Yrotation Xrotation
						End Site
						{
							OFFSET 0.000000 0.000000 0.000000
						}
					}
				}
			}
		}
	}
	JOINT Spine_virtual
	{
		OFFSET 0.000000 0.000000 0.000000
		CHANNELS 3 Zrotation Yrotation Xrotation
		JOINT Spine
		{
			OFFSET 0.000000 6.876099 0.125700
			CHANNELS 3 Zrotation Yrotation Xrotation
			JOINT Spine1
			{
				OFFSET 0.000000 8.022060 0.146608
				CHANNELS 3 Zrotation Yrotation Xrotation
				JOINT Spine2
				{
					OFFSET 0.000000 9.168068 0.167552
					CHANNELS 3 Zrotation Yrotation Xrotation
					JOINT Neck_virtual
					{
						OFFSET 0.000000 0.000000 0.000000
						CHANNELS 3 Zrotation Yrotation Xrotation
						JOINT Neck
						{
							OFFSET 0.000000 10.314075 0.188496
							CHANNELS 3 Zrotation Yrotation Xrotation
							JOINT Head
							{
								OFFSET 0.000000 7.643700 -2.377400
								CHANNELS 3 Zrotation Yrotation Xrotation
								End Site
								{
									OFFSET 0.000000 0.000000 0.000000
								}
							}
						}
					}
					JOINT LeftShoulder_virtual
					{
						OFFSET 0.000000 0.000000 0.000000
						CHANNELS 3 Zrotation Yrotation Xrotation
						JOINT LeftShoulder
						{
							OFFSET 4.392200 8.824978 0.174984
							CHANNELS 3 Zrotation Yrotation Xrotation
							JOINT LeftArm
							{
								OFFSET 8.771219 -2.981674 -0.026999
								CHANNELS 3 Zrotation Yrotation Xrotation
								JOINT LeftForeArm
								{
									OFFSET 8.512804 0.000000 -0.000000
									CHANNELS 3 Zrotation Yrotation Xrotation
									JOINT LeftHand
									{
										OFFSET 18.484802 0.000000 -0.000000
										CHANNELS 3 Zrotation Yrotation Xrotation
										End Site
										{
											OFFSET 0.000000 0.000000 0.000000
										}
									}
								}
							}
						}
					}
					JOINT RightShoulder_virtual
					{
						OFFSET 0.000000 0.000000 0.000000
						CHANNELS 3 Zrotation Yrotation Xrotation
						JOINT RightShoulder
						{
							OFFSET -4.392200 8.824993 0.141379
							CHANNELS 3 Zrotation Yrotation Xrotation
							JOINT RightArm
							{
								OFFSET -8.771282 -2.981682 -0.094208
								CHANNELS 3 Zrotation Yrotation Xrotation
								JOINT RightForeArm
								{
									OFFSET -8.494598 0.000000 0.000000
									CHANNELS 3 Zrotation Yrotation Xrotation
									JOINT RightHand
									{
										OFFSET -18.483803 0.000000 0.000001
										CHANNELS 3 Zrotation Yrotation Xrotation
										End Site
										{
											OFFSET 0.000000 0.000000 0.000000
										}
									}
								}
							}
						}
					}
				}
			}
		}
	}
}
MOTION
Frames: 9
Frame Time: 0.033333
6.043320 36.084286 -14.736610 -179.681882 -8.042740 -179.929531 -1.311224 -2.273900 15.922194 -2.779809 -6.880812 -13.214293 5.902906 6.724667 14.292272 1.168275 0.306497 1.964244 0.000000 0.000000 0.000000 5.057709 -0.967949 15.990400 -2.107874 5.344447 -15.120644 -5.217614 3.515921 17.400713 11.300223 2.401908 3.809930 0.000000 0.000000 0.000000 2.132084 1.353687 1.832150 2.562185 -1.564151 -15.020353 -0.315753 -2.843869 7.951211 -0.048798 -0.052729 0.009349 -0.809127 -0.418061 9.408088 -2.798629 3.044252 15.519286 0.000000 0.000000 0.000000 1.088196 0.299142 6.620043 -17.445405 -8.180160 4.441462 -46.931592 14.175044 6.925787 1.182125 -37.515757 1.954476 0.000000 0.000000 0.000000 -3.423126 1.383546 6.095277 29.181925 4.764296 7.313318 44.671114 -12.578306 8.728736 -2.905868 31.816343 -3.005098 0.000000 0.000000 0.000000 
6.037885 36.077274 -14.687849 -179.692715 -8.125977 -179.784868 -1.527841 -2.244891 15.907434 -2.869642 -6.631774 -13.120214 5.978415 7.096788 14.220980 1.465837 0.587290 1.706528 0.000000 0.000000 0.000000 5.064105 -1.032820 15.936208 -1.924722 4.799569 -15.081239 -5.180467 2.955724 17.585015 11.011534 2.163740 4.031550 0.000000 0.000000 0.000000 2.082792 1.402890 1.624740 2.518545 -1.523129 -15.035907 -0.321755 -2.872052 7.899836 -0.006369 -0.034041 -0.020446 -0.822320 -0.417806 9.402166 -2.892509 3.174165 15.491390 0.000000 0.000000 0.000000 1.057036 0.198924 6.671833 -17.449238 -8.449199 4.358214 -46.749527 13.120856 6.619450 1.072305 -38.066171 2.004833 0.000000 0.000000 0.000000 -3.472678 1.264832 6.076178 29.108777 4.841596 7.366651 44.533540 -12.026070 8.893659 -2.923299 32.047217 -3.097283 0.000000 0.000000 0.000000 
6.029428 36.077332 -14.620903 -179.649493 -8.175105 -179.837296 -1.475906 -2.304670 15.818604 -2.917590 -6.617551 -13.085822 5.978863 7.182123 14.235920 1.446758 0.580646 1.713429 0.000000 0.000000 0.000000 5.081631 -1.116146 15.814565 -1.946423 4.823935 -15.100140 -5.174062 2.992679 17.610705 11.066658 2.200922 4.090494 0.000000 0.000000 0.000000 2.147246 1.224425 1.603100 2.442562 -1.462165 -15.097667 -0.355984 -2.822594 7.872634 -0.020215 -0.001229 0.021666 -0.844952 -0.435641 9.296412 -2.884530 3.064417 15.519020 0.000000 0.000000 0.000000 1.031573 0.159503 6.542238 -17.493626 -8.692090 4.361178 -46.305623 11.289447 6.543604 1.080701 -38.966345 1.874516 0.000000 0.000000 0.000000 -3.504013 1.251900 5.977847 29.212982 5.138525 7.360598 44.100762 -11.079544 9.335635 -2.815077 32.270267 -2.881206 0.000000 0.000000 0.000000 
6.022980 36.080872 -14.542675 -179.628620 -8.278495 -179.886788 -1.437221 -2.440348 15.720884 -2.991385 -6.623220 -13.029078 6.045436 7.296849 14.211114 1.407704 0.575992 1.705626 0.000000 0.000000 0.000000 5.093514 -1.263376 15.668717 -1.996799 4.833015 -15.115687 -5.102015 3.033237 17.607096 11.085358 2.218483 4.173322 0.000000 0.000000 0.000000 2.187320 1.251596 1.552675 2.313482 -1.484280 -15.161372 -0.402301 -2.858215 7.834564 -0.054658 -0.035848 0.017365 -0.873625 -0.473900 9.267088 -2.879268 3.110988 15.629225 0.000000 0.000000 0.000000 1.028102 0.201002 6.508950 -17.552176 -8.967253 4.233049 -45.699785 9.299824 6.352662 0.841849 -40.105536 1.950379 0.000000 0.000000 0.000000 -3.498823 1.304678 5.915377 29.394119 5.457882 7.545222 43.571491 -9.976092 9.774704 -2.746661 32.516079 -2.783359 0.000000 0.000000 0.000000 
6.022252 36.089180 -14.466935 -179.701854 -8.337860 -179.848552 -1.515818 -2.547534 15.611767 -3.034267 -6.648319 -13.027934 6.090634 7.372537 14.152377 1.404426 0.600376 1.704396 0.000000 0.000000 0.000000 5.009101 -1.321515 15.491639 -2.030763 4.766894 -15.159762 -5.089484 3.034669 17.600241 11.139975 2.289997 4.262524 0.000000 0.000000 0.000000 2.126165 1.216092 1.418095 2.123494 -1.439445 -15.244260 -0.431110 -3.011793 7.801571 -0.042017 -0.010046 0.011907 -0.881832 -0.438863 9.279985 -2.868567 3.182892 15.828082 0.000000 0.000000 0.000000 1.002342 0.215420 6.426731 -17.657637 -9.164993 4.190217 -45.034046 7.506014 6.108466 0.630412 -41.525218 2.008438 0.000000 0.000000 0.000000 -3.499693 1.296504 5.939105 29.527997 5.940040 7.555020 43.075391 -8.991122 10.297676 -2.657868 32.840895 -2.630034 0.000000 0.000000 0.000000 
6.024736 36.102119 -14.395670 -179.687415 -8.501574 -179.902101 -1.524900 -2.609592 15.542864 -3.037556 -6.506572 -13.023386 6.099355 7.245155 14.135275 1.349231 0.553233 1.716243 0.000000 0.000000 0.000000 5.013549 -1.424019 15.364850 -2.013510 4.685281 -15.109488 -5.159081 2.989345 17.637872 11.213263 2.367794 4.388646 0.000000 0.000000 0.000000 2.149405 1.004893 1.413682 2.014033 -1.422917 -15.337692 -0.387748 -2.836977 7.763128 -0.025286 0.001783 0.020077 -0.882354 -0.477095 9.285032 -2.828001 3.410861 16.037619 0.000000 0.000000 0.000000 0.995096 0.138520 6.370751 -17.787814 -9.314952 4.269597 -44.343654 5.875385 5.869399 0.472194 -42.955203 2.022900 0.000000 0.000000 0.000000 -3.518426 1.225676 5.909429 29.684661 6.235043 7.570788 42.474679 -8.152002 10.800952 -2.551286 33.262769 -2.466441 0.000000 0.000000 0.000000 
6.023967 36.113789 -14.323547 -179.762082 -8.678742 -179.890312 -1.601842 -2.688207 15.411152 -3.037186 -6.603654 -13.070490 6.181661 7.278758 14.108577 1.319350 0.526667 1.705934 0.000000 0.000000 0.000000 4.968517 -1.450379 15.223033 -2.037200 4.570068 -15.103227 -5.057169 2.955749 17.667575 11.169256 2.400444 4.469980 0.000000 0.000000 0.000000 2.104906 1.228059 1.281321 1.873131 -1.526476 -15.347667 -0.406454 -2.964618 7.686527 -0.031541 -0.103388 0.006163 -0.842695 -0.492389 9.364413 -2.768389 3.373679 16.332043 0.000000 0.000000 0.000000 1.025670 0.222789 6.384113 -17.898646 -9.373705 4.063748 -43.758088 4.668368 5.868437 0.312922 -44.257915 1.988139 0.000000 0.000000 0.000000 -3.467852 1.289226 5.897273 29.805832 6.577773 7.663389 42.003085 -7.519486 11.272106 -2.476839 33.832300 -2.289857 0.000000 0.000000 0.000000 
6.020892 36.127235 -14.252325 -179.690912 -8.763668 -179.888782 -1.600182 -2.664210 15.279026 -2.960177 -6.623937 -13.078813 6.109419 7.276042 14.045367 1.321210 0.506833 1.654171 0.000000 0.000000 0.000000 5.033499 -1.352007 15.074465 -2.008507 4.498100 -15.037901 -5.110970 2.884919 17.725584 11.188869 2.433570 4.564914 0.000000 0.000000 0.000000 2.128005 1.127914 1.225108 1.823152 -1.474477 -15.426800 -0.357485 -2.892029 7.662782 -0.006437 -0.021415 -0.011854 -0.844747 -0.415542 9.397909 -2.704316 3.463426 16.624740 0.000000 0.000000 0.000000 0.975678 0.161247 6.418880 -18.014264 -9.460650 4.148471 -43.286139 3.595885 5.896585 0.294464 -45.349051 1.853582 0.000000 0.000000 0.000000 -3.511137 1.254235 5.878025 29.878044 6.848683 7.718237 41.744036 -7.087340 11.765581 -2.467564 34.323910 -2.253816 0.000000 0.000000 0.000000 
6.014228 36.137154 -14.182941 -179.659397 -8.924510 -179.934121 -1.586630 -2.645189 15.160664 -2.917774 -6.733236 -13.130330 6.113195 7.258644 14.120150 1.298767 0.458828 1.686550 0.000000 0.000000 0.000000 5.068484 -1.372721 14.958886 -2.008130 4.443605 -14.978289 -5.122401 2.848760 17.721249 11.140951 2.449673 4.611956 0.000000 0.000000 0.000000 2.134696 1.124154 1.152573 1.814858 -1.506354 -15.408154 -0.338995 -2.865798 7.639588 -0.058290 -0.025600 0.031327 -0.787974 -0.466814 9.321626 -2.622120 3.561865 16.911813 0.000000 0.000000 0.000000 0.995123 0.144816 6.312942 -18.106804 -9.489237 4.046788 -43.007201 3.030097 6.016522 0.040381 -46.087798 1.923280 0.000000 0.000000 0.000000 -3.476158 1.141832 5.782378 29.893774 7.081386 7.706560 41.677688 -6.867426 12.109300 -2.413048 34.720683 -2.164714 0.000000 0.000000 0.000000 
